<?xml version="1.0" encoding="UTF-8"?>
<!DOCTYPE svg PUBLIC "-//W3C//DTD SVG 1.1//EN" "http://www.w3.org/Graphics/SVG/1.1/DTD/svg11.dtd">
<svg xmlns="http://www.w3.org/2000/svg" xmlns:xlink="http://www.w3.org/1999/xlink" version="1.1" width="222px" height="32px" viewBox="-0.5 -0.5 222 32"><defs><linearGradient x1="100%" y1="0%" x2="0%" y2="0%" id="mx-gradient-ffffff-1-cda2be-1-e-0"><stop offset="0%" style="stop-color: rgb(205, 162, 190); stop-opacity: 1;"/><stop offset="100%" style="stop-color: rgb(255, 255, 255); stop-opacity: 1;"/></linearGradient><linearGradient x1="100%" y1="0%" x2="0%" y2="0%" id="mx-gradient-ffffff-1-9ac7bf-1-e-0"><stop offset="0%" style="stop-color: rgb(154, 199, 191); stop-opacity: 1;"/><stop offset="100%" style="stop-color: rgb(255, 255, 255); stop-opacity: 1;"/></linearGradient><linearGradient x1="100%" y1="0%" x2="0%" y2="0%" id="mx-gradient-ffffff-1-d4e1f5-1-e-0"><stop offset="0%" style="stop-color: rgb(212, 225, 245); stop-opacity: 1;"/><stop offset="100%" style="stop-color: rgb(255, 255, 255); stop-opacity: 1;"/></linearGradient><style type="text/css">@import url(https://fonts.googleapis.com/css?family=Architects+Daughter);&#xa;</style></defs><g><rect x="1" y="1" width="40" height="30" rx="4.5" ry="4.5" fill="none" stroke="none" pointer-events="all"/><path d="M 5.78 0 L 37.23 0.4 L 40.96 2.29 L 39.16 4.67 L 41.39 31.38 L 37.54 31.92 L 6.01 30.23 L 3.28 29.62 L 0.22 4.28 L 3.66 1.13 L 4.54 1.94" fill="url(#mx-gradient-ffffff-1-cda2be-1-e-0)" stroke="none" pointer-events="all"/><path d="M 5.5 1 M 5.5 1 C 12.06 0.31 20.86 1.67 36.5 1 M 5.5 1 C 15.6 1.98 24.86 1.86 36.5 1 M 36.5 1 C 40.09 2.42 39.35 1.7 41 5.5 M 36.5 1 C 37.52 -0.5 40.96 1.85 41 5.5 M 41 5.5 C 40.51 12.3 42.04 20.7 41 26.5 M 41 5.5 C 40.03 12.88 41.37 20.15 41 26.5 M 41 26.5 C 42.49 29.88 41.28 32.09 36.5 31 M 41 26.5 C 39.42 30.41 41.04 33.25 36.5 31 M 36.5 31 C 26.65 29.39 18.81 29.77 5.5 31 M 36.5 31 C 28.18 30.27 19.19 30.45 5.5 31 M 5.5 31 C 2.58 32.69 0.32 29.84 1 26.5 M 5.5 31 C 2.1 32.54 0.05 29.52 1 26.5 M 1 26.5 C 1.7 19.17 1.72 13.63 1 5.5 M 1 26.5 C 1.2 21.24 1 15.91 1 5.5 M 1 5.5 C 1.71 2.27 3.94 -0.34 5.5 1 M 1 5.5 C 2.9 3.2 3.96 3.05 5.5 1" fill="none" stroke="rgb(0, 0, 0)" stroke-width="2" stroke-linejoin="round" stroke-linecap="round" stroke-miterlimit="10" pointer-events="all"/><g fill="rgb(0, 0, 0)" font-family="Helvetica" text-anchor="middle" font-size="12px"><text x="20.5" y="20.5">PAD</text></g><rect x="131" y="1" width="90" height="30" rx="4.5" ry="4.5" fill="none" stroke="none" pointer-events="all"/><path d="M 135.78 0.34 L 217.6 -0.46 L 221.05 7.34 L 222.04 29.08 L 218.29 29.72 L 132.96 32.07 L 129.05 24.59 L 132.86 3.78 L 130.23 0.54 L 135.2 2.5" fill="url(#mx-gradient-ffffff-1-9ac7bf-1-e-0)" stroke="none" pointer-events="all"/><path d="M 135.5 1 M 135.5 1 C 160.74 -0.48 182.39 1 216.5 1 M 135.5 1 C 163.52 0.22 191.13 0.45 216.5 1 M 216.5 1 C 220.84 -0.7 220.19 4.32 221 5.5 M 216.5 1 C 220.46 0.4 219.63 3.37 221 5.5 M 221 5.5 C 219.33 11.61 219.37 15.8 221 26.5 M 221 5.5 C 221.18 12.22 220.97 17.99 221 26.5 M 221 26.5 C 219.46 31.39 221.1 29.09 216.5 31 M 221 26.5 C 220.55 29.06 217.45 29.6 216.5 31 M 216.5 31 C 186.66 32.92 157.72 31.6 135.5 31 M 216.5 31 C 200.12 32.22 182.58 30.66 135.5 31 M 135.5 31 C 133.27 30.95 129.52 31.18 131 26.5 M 135.5 31 C 132.23 32.19 132.28 31.27 131 26.5 M 131 26.5 C 132.85 21.34 131.56 18.42 131 5.5 M 131 26.5 C 130.12 19 131.28 11.31 131 5.5 M 131 5.5 C 132.46 3.42 134.33 2.9 135.5 1 M 131 5.5 C 133.05 0.24 130.65 1.51 135.5 1" fill="none" stroke="rgb(0, 0, 0)" stroke-width="2" stroke-linejoin="round" stroke-linecap="round" stroke-miterlimit="10" pointer-events="all"/><g fill="rgb(0, 0, 0)" font-family="Helvetica" text-anchor="middle" font-size="12px"><text x="175.5" y="20.5">DATA</text></g><rect x="41" y="1" width="90" height="30" rx="4.5" ry="4.5" fill="none" stroke="none" pointer-events="all"/><path d="M 45.78 0.68 L 130.01 2.4 L 130.02 5.02 L 131.21 26.52 L 124.56 30.92 L 45.35 32.5 L 40.59 27.45 L 39.56 6.31 L 43.11 0.16 L 47.38 0.99" fill="url(#mx-gradient-ffffff-1-d4e1f5-1-e-0)" stroke="none" pointer-events="all"/><path d="M 45.5 1 M 45.5 1 C 71.21 1.83 98.72 1.11 126.5 1 M 45.5 1 C 70.05 0 92.4 1.22 126.5 1 M 126.5 1 C 129.47 0.12 132.78 0.72 131 5.5 M 126.5 1 C 128.72 0.73 130.24 1.13 131 5.5 M 131 5.5 C 132.13 14.54 132.71 19.49 131 26.5 M 131 5.5 C 131.58 11.12 131.54 15.72 131 26.5 M 131 26.5 C 130.99 29.62 131.22 30.8 126.5 31 M 131 26.5 C 132.64 27.36 131.58 31.88 126.5 31 M 126.5 31 C 96.6 29.88 69.99 32.4 45.5 31 M 126.5 31 C 96 30.51 66.57 31.29 45.5 31 M 45.5 31 C 42.5 31.61 41.95 31.18 41 26.5 M 45.5 31 C 42.75 32.98 39.36 31.49 41 26.5 M 41 26.5 C 40.27 17.36 41.37 10.62 41 5.5 M 41 26.5 C 40.48 19.87 41.38 12.08 41 5.5 M 41 5.5 C 39.51 3.49 41.44 1.03 45.5 1 M 41 5.5 C 38.84 4.12 41.5 1.33 45.5 1" fill="none" stroke="rgb(0, 0, 0)" stroke-width="2" stroke-linejoin="round" stroke-linecap="round" stroke-miterlimit="10" pointer-events="all"/><g fill="rgb(0, 0, 0)" font-family="Helvetica" text-anchor="middle" font-size="12px"><text x="85.5" y="20.5">COUNTER</text></g></g></svg>