<?xml version="1.0" encoding="UTF-8"?>
<!DOCTYPE svg PUBLIC "-//W3C//DTD SVG 1.1//EN" "http://www.w3.org/Graphics/SVG/1.1/DTD/svg11.dtd">
<svg xmlns="http://www.w3.org/2000/svg" xmlns:xlink="http://www.w3.org/1999/xlink" version="1.1" width="132px" height="32px" viewBox="-0.5 -0.5 132 32"><defs><linearGradient x1="100%" y1="0%" x2="0%" y2="0%" id="mx-gradient-ffffff-1-cda2be-1-e-0"><stop offset="0%" style="stop-color: rgb(205, 162, 190); stop-opacity: 1;"/><stop offset="100%" style="stop-color: rgb(255, 255, 255); stop-opacity: 1;"/></linearGradient><linearGradient x1="100%" y1="0%" x2="0%" y2="0%" id="mx-gradient-ffffff-1-9ac7bf-1-e-0"><stop offset="0%" style="stop-color: rgb(154, 199, 191); stop-opacity: 1;"/><stop offset="100%" style="stop-color: rgb(255, 255, 255); stop-opacity: 1;"/></linearGradient><style type="text/css">@import url(https://fonts.googleapis.com/css?family=Architects+Daughter);&#xa;</style></defs><g><rect x="1" y="1" width="40" height="30" rx="4.5" ry="4.5" fill="none" stroke="none" pointer-events="all"/><path d="M 5.78 -0.68 L 36.42 2.69 L 39.04 2.93 L 40.84 5.79 L 40.85 28.97 L 36.75 31.07 L 6.92 32.5 L 1.87 28.57 L 2.46 5.03 L 3.31 0.16 L 6.86 2.93" fill="url(#mx-gradient-ffffff-1-cda2be-1-e-0)" stroke="none" pointer-events="all"/><path d="M 5.5 1 M 5.5 1 C 18.1 -0.05 28.89 -0.65 36.5 1 M 5.5 1 C 17.12 0.42 27.53 0.85 36.5 1 M 36.5 1 C 38.9 1.62 42.38 1.14 41 5.5 M 36.5 1 C 40.89 -0.62 39.09 0.23 41 5.5 M 41 5.5 C 42.3 12.07 39.87 19.77 41 26.5 M 41 5.5 C 40.59 12.7 42 18.59 41 26.5 M 41 26.5 C 42.26 30.45 37.63 31.03 36.5 31 M 41 26.5 C 40.36 30.45 41.32 33.06 36.5 31 M 36.5 31 C 27.27 29.99 18.66 32.87 5.5 31 M 36.5 31 C 25.92 31.43 15.04 32.24 5.5 31 M 5.5 31 C 1.71 32.69 -0.58 28.46 1 26.5 M 5.5 31 C 3.34 32.08 2.62 29.57 1 26.5 M 1 26.5 C 1.96 23.5 1.13 17.45 1 5.5 M 1 26.5 C 1.33 19.75 0.05 13.89 1 5.5 M 1 5.5 C -0.52 2 3.26 0.9 5.5 1 M 1 5.5 C 1.19 3.57 1.12 1.04 5.5 1" fill="none" stroke="rgb(0, 0, 0)" stroke-width="2" stroke-linejoin="round" stroke-linecap="round" stroke-miterlimit="10" pointer-events="all"/><g fill="rgb(0, 0, 0)" font-family="Helvetica" text-anchor="middle" font-size="12px"><text x="20.5" y="20.5">PAD</text></g><rect x="41" y="1" width="90" height="30" rx="4.5" ry="4.5" fill="none" stroke="none" pointer-events="all"/><path d="M 45.78 -0.34 L 126.79 1.83 L 129.12 3.98 L 129.72 30.2 L 127.75 31.3 L 42.18 31.22 L 39.96 26.86 L 41.45 6.72 L 42.47 1.28 L 44.86 1.52" fill="url(#mx-gradient-ffffff-1-9ac7bf-1-e-0)" stroke="none" pointer-events="all"/><path d="M 45.5 1 M 45.5 1 C 61.79 2.89 79.72 0.78 126.5 1 M 45.5 1 C 64.26 0.66 82.2 0.91 126.5 1 M 126.5 1 C 129.58 1.67 133 3.52 131 5.5 M 126.5 1 C 129.35 -0.24 133 3.24 131 5.5 M 131 5.5 C 132.55 14.14 131.54 21.21 131 26.5 M 131 5.5 C 131.96 10.22 131.42 14.15 131 26.5 M 131 26.5 C 130.41 30.93 130.88 29.67 126.5 31 M 131 26.5 C 130.95 27.84 128.39 29.63 126.5 31 M 126.5 31 C 96.76 33.38 67.19 32.38 45.5 31 M 126.5 31 C 103.95 30.39 81.81 30.14 45.5 31 M 45.5 31 C 40.81 29.64 42.64 31.19 41 26.5 M 45.5 31 C 41.2 30.6 38.92 30.81 41 26.5 M 41 26.5 C 40 20.9 41.93 13.21 41 5.5 M 41 26.5 C 41.82 19.25 41.5 13.79 41 5.5 M 41 5.5 C 40.36 3.29 42.09 2.63 45.5 1 M 41 5.5 C 42.27 1.67 43.55 1.88 45.5 1" fill="none" stroke="rgb(0, 0, 0)" stroke-width="2" stroke-linejoin="round" stroke-linecap="round" stroke-miterlimit="10" pointer-events="all"/><g fill="rgb(0, 0, 0)" font-family="Helvetica" text-anchor="middle" font-size="12px"><text x="85.5" y="20.5">DATA</text></g></g></svg>